<svg width="287" height="44" viewBox="0 0 287 44" fill="none" xmlns="http://www.w3.org/2000/svg">
<g clip-path="url(#clip0_5938_18663)">
<path d="M75.4526 27.557C75.3237 27.4241 75.4163 27.2025 75.6016 27.2025H76.3911C76.3911 27.2025 76.4274 27.2025 76.4475 27.2025C83.3317 26.5016 89.084 22.0545 89.084 14.1632C89.084 5.07154 81.7486 0.870117 73.3458 0.870117H33.9902C33.4625 0.870117 33.0315 1.29711 33.0315 1.82883V42.1713C33.0315 42.699 33.4585 43.1301 33.9902 43.1301H46.5582C47.0859 43.1301 47.5169 42.7031 47.5169 42.1713V29.2891C47.5169 28.7614 47.9439 28.3304 48.4756 28.3304H56.6448C57.7768 28.3304 58.8563 28.8178 59.6096 29.6638L71.2471 42.8038C71.4969 42.9166 71.7144 43.0132 71.9641 43.126H88.5523C89.4022 43.126 89.8292 42.1029 89.2331 41.4946L75.4566 27.557H75.4526ZM70.2119 18.8641H48.4716C47.9439 18.8641 47.5129 18.4371 47.5129 17.9054V11.7946C47.5129 11.2669 47.9399 10.8359 48.4716 10.8359H69.8977C72.9712 10.8359 74.9772 12.3425 74.9772 14.7231C74.9772 17.4824 73.0961 18.8601 70.2119 18.8601V18.8641Z" fill="white"/>
<path d="M234.297 0.870117H221.733C221.203 0.870117 220.774 1.29935 220.774 1.82883V28.6084C220.774 29.1378 221.203 29.5671 221.733 29.5671H234.297C234.826 29.5671 235.255 29.1378 235.255 28.6084V1.82883C235.255 1.29935 234.826 0.870117 234.297 0.870117Z" fill="white"/>
<path d="M234.297 35.271H221.733C221.203 35.271 220.774 35.7002 220.774 36.2297V42.1713C220.774 42.7008 221.203 43.13 221.733 43.13H234.297C234.826 43.13 235.255 42.7008 235.255 42.1713V36.2297C235.255 35.7002 234.826 35.271 234.297 35.271Z" fill="white"/>
<path d="M286.047 41.8652L269.878 20.4553C269.515 19.9759 269.547 19.3113 269.95 18.8682L285.221 2.11886C285.656 1.63951 285.318 0.870117 284.669 0.870117H271.457C271.106 0.870117 270.772 1.01916 270.538 1.27697L255.795 17.4825H255.787C255.739 17.5348 255.674 17.5751 255.594 17.5751H255.062C254.921 17.5751 254.812 17.4623 254.808 17.3253V1.75229C254.808 1.26488 254.413 0.870117 253.926 0.870117H241.845C241.358 0.870117 240.963 1.26488 240.963 1.75229V42.1955C240.963 42.6426 241.326 43.0052 241.773 43.0052H253.995C254.442 43.0052 254.804 42.6426 254.804 42.1955V34.6668C254.804 34.3526 254.925 34.0464 255.139 33.8168L260.504 28.0766C260.504 28.0766 260.552 28.0041 260.661 28.0041H261.386C261.475 28.0041 261.527 28.0766 261.527 28.0766L272.339 42.5057C272.573 42.8199 272.943 43.0052 273.334 43.0052H285.475C286.063 43.0052 286.401 42.3325 286.043 41.8612L286.047 41.8652Z" fill="white"/>
<path d="M108.633 10.5257H120.923C121.451 10.5257 121.882 10.0987 121.882 9.56702V1.82883C121.882 1.29711 121.455 0.870117 120.923 0.870117H95.5009C94.9732 0.870117 94.5422 1.29711 94.5422 1.82883V42.1713C94.5422 42.699 94.9692 43.1301 95.5009 43.1301H120.923C121.451 43.1301 121.882 42.7031 121.882 42.1713V34.4291C121.882 33.9014 121.455 33.4704 120.923 33.4704H108.544C108.017 33.4704 107.586 33.0434 107.586 32.5117V27.4925C107.586 26.9165 108.053 26.4452 108.633 26.4452H120.923C121.451 26.4452 121.882 26.0182 121.882 25.4865V17.9336C121.882 17.4059 121.455 16.9749 120.923 16.9749H108.633C108.057 16.9749 107.586 16.5076 107.586 15.9276V11.561C107.586 10.9849 108.053 10.5136 108.633 10.5136V10.5257Z" fill="white"/>
<path d="M141.672 10.5257H153.962C154.49 10.5257 154.921 10.0987 154.921 9.56702V1.82883C154.921 1.29711 154.494 0.870117 153.962 0.870117H128.54C128.013 0.870117 127.581 1.29711 127.581 1.82883V42.1713C127.581 42.699 128.008 43.1301 128.54 43.1301H153.962C154.49 43.1301 154.921 42.7031 154.921 42.1713V34.4291C154.921 33.9014 154.494 33.4704 153.962 33.4704H141.584C141.056 33.4704 140.625 33.0434 140.625 32.5117V27.4925C140.625 26.9165 141.092 26.4452 141.672 26.4452H153.962C154.49 26.4452 154.921 26.0182 154.921 25.4865V17.9336C154.921 17.4059 154.494 16.9749 153.962 16.9749H141.672C141.096 16.9749 140.625 16.5076 140.625 15.9276V11.561C140.625 10.9849 141.092 10.5136 141.672 10.5136V10.5257Z" fill="white"/>
<path d="M14.0866 10.5257H26.3767C26.9044 10.5257 27.3354 10.0987 27.3354 9.56702V1.82883C27.3354 1.29711 26.9084 0.870117 26.3767 0.870117H0.958714C0.42699 0.870117 0 1.29711 0 1.82883V42.1713C0 42.699 0.42699 43.1301 0.958714 43.1301H12.0806C12.6083 43.1301 13.0393 42.7031 13.0393 42.1713L13.0474 27.4966C13.0474 26.9205 13.5146 26.4492 14.0947 26.4492H26.3848C26.9125 26.4492 27.3435 26.0223 27.3435 25.4905V17.9376C27.3435 17.4099 26.9165 16.9789 26.3848 16.9789H14.0947C13.5187 16.9789 13.0474 16.5117 13.0474 15.9316V11.565C13.0474 10.989 13.5146 10.5177 14.0947 10.5177L14.0866 10.5257Z" fill="white"/>
<path d="M199.633 0.870117H161.583C161.055 0.870117 160.624 1.29711 160.624 1.82883V42.1713C160.624 42.699 161.051 43.1301 161.583 43.1301H174.151C174.679 43.1301 175.11 42.7031 175.11 42.1713V28.8178C175.11 28.5479 175.327 28.3304 175.597 28.3304H199.698C209.358 28.3304 216.677 23.2952 216.677 14.4049C216.677 5.51464 209.354 0.870117 199.633 0.870117ZM197.805 18.8641H176.064C175.537 18.8641 175.106 18.4371 175.106 17.9054V11.7946C175.106 11.2669 175.533 10.8399 176.064 10.8399H197.49C200.564 10.8399 202.57 12.3425 202.57 14.7272C202.57 17.4865 200.689 18.8641 197.805 18.8641Z" fill="white"/>
</g>
<defs>
<clipPath id="clip0_5938_18663">
<rect width="287" height="44" fill="white"/>
</clipPath>
</defs>
</svg>
